<?xml version="1.0" encoding="utf-8"?>
<!-- Generator: Adobe Illustrator 16.0.0, SVG Export Plug-In . SVG Version: 6.00 Build 0)  -->
<!DOCTYPE svg PUBLIC "-//W3C//DTD SVG 1.1//EN" "http://www.w3.org/Graphics/SVG/1.1/DTD/svg11.dtd">
<svg version="1.1" id="Layer_1" xmlns="http://www.w3.org/2000/svg" xmlns:xlink="http://www.w3.org/1999/xlink" x="0px" y="0px"
	 width="22px" height="22px" viewBox="0 0 22 22" enable-background="new 0 0 22 22" xml:space="preserve">
<g>
	<path fill="#FFFFFF" d="M22,21.561C22,21.804,21.804,22,21.561,22H0.44C0.197,22,0,21.804,0,21.561V0.44C0,0.197,0.197,0,0.44,0
		h21.121C21.804,0,22,0.197,22,0.44V21.561z"/>
	<path fill="#CBCBCB" d="M21,1v20H1V1H21 M21.561,0H0.44C0.197,0,0,0.197,0,0.44v21.121C0,21.804,0.197,22,0.44,22h21.121
		C21.804,22,22,21.804,22,21.561V0.44C22,0.197,21.804,0,21.561,0L21.561,0z"/>
</g>
<path fill="#4B9700" d="M4.389,11.194c-0.114-0.114-0.171-0.286-0.171-0.399c0-0.114,0.057-0.286,0.171-0.4l0.798-0.799
	c0.229-0.228,0.571-0.228,0.799,0l0.057,0.058l3.138,2.765c0.114,0.114,0.285,0.114,0.399,0l6.375-5.974h0.057l0,0
	c0.229-0.228,0.57-0.228,0.8,0l0.798,0.799c0.229,0.229,0.229,0.57,0,0.799l0,0l-7.858,7.515c-0.114,0.113-0.229,0.171-0.4,0.171
	c-0.171,0-0.285-0.058-0.399-0.171l-4.45-4.192L4.389,11.194L4.389,11.194z"/>
</svg>
