<?xml version="1.0" encoding="utf-8"?>
<!-- Generator: Adobe Illustrator 16.0.0, SVG Export Plug-In . SVG Version: 6.00 Build 0)  -->
<!DOCTYPE svg PUBLIC "-//W3C//DTD SVG 1.1//EN" "http://www.w3.org/Graphics/SVG/1.1/DTD/svg11.dtd">
<svg version="1.1" id="Layer_1" xmlns="http://www.w3.org/2000/svg" xmlns:xlink="http://www.w3.org/1999/xlink" x="0px" y="0px"
	 width="22px" height="22px" viewBox="0 0 22 22" enable-background="new 0 0 22 22" xml:space="preserve">
<g>
	<path fill="#FFFFFF" d="M22,21.561C22,21.804,21.804,22,21.561,22H0.44C0.197,22,0,21.804,0,21.561V0.44C0,0.197,0.197,0,0.44,0
		h21.121C21.804,0,22,0.197,22,0.44V21.561z"/>
	<path fill="#CBCBCB" d="M21,1v20H1V1H21 M21.561,0H0.44C0.197,0,0,0.197,0,0.44v21.121C0,21.804,0.197,22,0.44,22h21.121
		C21.804,22,22,21.804,22,21.561V0.44C22,0.197,21.804,0,21.561,0L21.561,0z"/>
</g>
</svg>
