<?xml version="1.0" encoding="utf-8"?>
<!-- Generator: Adobe Illustrator 16.0.0, SVG Export Plug-In . SVG Version: 6.00 Build 0)  -->
<!DOCTYPE svg PUBLIC "-//W3C//DTD SVG 1.1//EN" "http://www.w3.org/Graphics/SVG/1.1/DTD/svg11.dtd">
<svg version="1.1" id="Layer_1" xmlns="http://www.w3.org/2000/svg" xmlns:xlink="http://www.w3.org/1999/xlink" x="0px" y="0px"
	 width="60px" height="60px" viewBox="0 0 60 60" enable-background="new 0 0 60 60" xml:space="preserve">
<g id="Layer_1_1_">
	<g>
		<g>
			<g>
				<g>
					<path fill="#FFFFFF" d="M30.921,12.5c0-0.509-0.412-0.921-0.92-0.921c-5.872,0-11.003,3.963-12.48,9.639
						c-0.128,0.492,0.167,0.995,0.66,1.123c0.078,0.021,0.156,0.03,0.233,0.03c0.41,0,0.783-0.275,0.891-0.689
						c1.264-4.864,5.664-8.261,10.697-8.261C30.509,13.421,30.921,13.01,30.921,12.5z"/>
					<path fill="#FFFFFF" d="M18.08,23.018c-0.506-0.023-0.939,0.371-0.961,0.88c-0.008,0.191-0.014,0.385-0.014,0.576
						c0,0.509,0.413,0.921,0.921,0.921c0.509,0,0.921-0.412,0.921-0.921c0-0.165,0.003-0.332,0.011-0.496
						C18.981,23.47,18.587,23.04,18.08,23.018z"/>
					<path fill="#FFFFFF" d="M41.821,26.605c-0.494-0.129-0.997,0.167-1.125,0.659c-1.264,4.865-5.664,8.261-10.696,8.261
						c-0.509,0-0.921,0.413-0.921,0.922s0.413,0.921,0.921,0.921c5.872,0,11.003-3.963,12.479-9.639
						C42.608,27.237,42.313,26.734,41.821,26.605z"/>
					<path fill="#FFFFFF" d="M41.921,25.93c0.014,0.001,0.028,0.001,0.042,0.001c0.49,0,0.897-0.386,0.918-0.88
						c0.009-0.191,0.014-0.386,0.014-0.577c0-0.508-0.412-0.921-0.922-0.921c-0.508,0-0.92,0.413-0.92,0.921
						c0,0.165-0.004,0.332-0.013,0.495C41.02,25.477,41.413,25.908,41.921,25.93z"/>
					<path fill="#FFFFFF" d="M47.376,44.829l-5.239-9.075c2.754-2.962,4.441-6.927,4.441-11.28c0-9.141-7.437-16.578-16.578-16.578
						c-9.142,0-16.578,7.437-16.578,16.578c0,4.354,1.687,8.318,4.441,11.28l-5.239,9.075c-0.187,0.321-0.16,0.725,0.067,1.021
						c0.227,0.295,0.609,0.425,0.969,0.328l7.164-1.919l1.918,7.163c0.096,0.359,0.401,0.625,0.77,0.675
						c0.04,0.006,0.08,0.008,0.119,0.008c0.327,0,0.633-0.173,0.798-0.46l5.566-9.658l5.576,9.658
						c0.166,0.287,0.472,0.46,0.797,0.46c0.041,0,0.08-0.004,0.121-0.009c0.368-0.049,0.673-0.314,0.77-0.676l1.918-7.162
						l7.163,1.919c0.359,0.096,0.743-0.033,0.97-0.328S47.563,45.15,47.376,44.829z M23.945,48.795l-1.582-5.902
						c-0.131-0.492-0.637-0.784-1.127-0.65l-5.904,1.581l3.899-6.755c2.53,2.165,5.718,3.584,9.218,3.91L23.945,48.795z
						 M15.265,24.474c0-8.125,6.611-14.736,14.736-14.736s14.736,6.611,14.736,14.736c0,8.125-6.611,14.735-14.736,14.735
						S15.265,32.599,15.265,24.474z M38.765,42.242c-0.492-0.131-0.997,0.16-1.128,0.65l-1.582,5.904l-4.513-7.817
						c3.504-0.325,6.694-1.744,9.228-3.911l3.9,6.755L38.765,42.242z"/>
				</g>
			</g>
		</g>
		<g>
			<polygon fill="#FFFFFF" points="31.851,22.255 30,18.51 28.149,22.255 24.011,22.859 27.002,25.776 26.296,29.902 30,27.957 
				33.704,29.902 33,25.776 35.989,22.859 			"/>
		</g>
	</g>
</g>
<g id="Capa_1">
</g>
</svg>
