<?xml version="1.0" encoding="utf-8"?>
<!-- Generator: Adobe Illustrator 16.0.0, SVG Export Plug-In . SVG Version: 6.00 Build 0)  -->
<!DOCTYPE svg PUBLIC "-//W3C//DTD SVG 1.1//EN" "http://www.w3.org/Graphics/SVG/1.1/DTD/svg11.dtd">
<svg version="1.1" id="Capa_1" xmlns="http://www.w3.org/2000/svg" xmlns:xlink="http://www.w3.org/1999/xlink" x="0px" y="0px"
	 width="16px" height="16px" viewBox="0 0 16 16" enable-background="new 0 0 16 16" xml:space="preserve">
<g>
	<path fill="#382D2B" d="M8,1c1.227,0,2.38,0.478,3.248,1.345c1.606,1.607,1.81,4.75,0.404,6.624L8,14.244L4.326,8.938
		c-1.383-1.844-1.18-4.986,0.426-6.593C5.62,1.478,6.773,1,8,1 M8.054,8.385c1.569,0,2.846-1.277,2.846-2.846
		S9.624,2.692,8.054,2.692S5.208,3.969,5.208,5.539S6.485,8.385,8.054,8.385 M8,0C6.569,0,5.137,0.546,4.045,1.638
		c-1.968,1.968-2.189,5.674-0.519,7.9L8,16l4.474-6.462c1.67-2.227,1.449-5.932-0.519-7.9C10.863,0.546,9.432,0,8,0L8,0z
		 M8.054,7.385c-1.02,0-1.846-0.826-1.846-1.846s0.826-1.846,1.846-1.846c1.02,0,1.846,0.826,1.846,1.846S9.074,7.385,8.054,7.385
		L8.054,7.385z"/>
</g>
</svg>
