<?xml version="1.0" encoding="utf-8"?>
<!-- Generator: Adobe Illustrator 16.0.0, SVG Export Plug-In . SVG Version: 6.00 Build 0)  -->
<!DOCTYPE svg PUBLIC "-//W3C//DTD SVG 1.1//EN" "http://www.w3.org/Graphics/SVG/1.1/DTD/svg11.dtd">
<svg version="1.1" id="Layer_1" xmlns="http://www.w3.org/2000/svg" xmlns:xlink="http://www.w3.org/1999/xlink" x="0px" y="0px"
	 width="45px" height="45px" viewBox="0 0 45 45" enable-background="new 0 0 45 45" xml:space="preserve">
<g>
	<g>
		<path fill="#FFFFFF" d="M42.5,18.412c0-4.963-7.2-13.245-8.646-14.854c-0.709-0.753-1.894-0.789-2.646-0.08
			c-0.028,0.026-0.056,0.053-0.081,0.08C28.605,6.399,26.352,9.47,24.4,12.73c-1.184-1.445-2.09-2.473-2.393-2.809
			c-0.709-0.753-1.894-0.789-2.647-0.08c-0.027,0.026-0.055,0.052-0.08,0.08c-2.48,2.811-4.781,5.774-6.891,8.872
			c-0.836-1.409-1.646-2.608-2.083-3.236c-0.57-0.826-1.703-1.033-2.529-0.462c-0.18,0.125-0.336,0.282-0.461,0.462
			C6.227,17.213,2.5,22.83,2.5,25.686c-0.015,3.289,2.48,6.047,5.755,6.362c1.517,6.864,8.311,11.197,15.175,9.681
			c5.821-1.287,9.971-6.442,9.979-12.405c-0.007-0.306-0.03-0.608-0.072-0.909C38.529,27.977,42.52,23.624,42.5,18.412z
			 M8.864,28.412c-1.506,0-2.729-1.223-2.729-2.729c0-0.908,1.246-3.335,2.729-5.753c1.482,2.418,2.727,4.845,2.727,5.753
			C11.591,27.191,10.37,28.412,8.864,28.412z M20.682,38.412c-4.244-0.023-7.914-2.964-8.864-7.1
			c2.093-1.101,3.406-3.267,3.409-5.629c-0.071-1.021-0.33-2.023-0.763-2.955c0.072-0.4,0.234-0.779,0.473-1.109
			c1.761-2.678,3.681-5.248,5.745-7.699c3.981,4.709,9.091,11.937,9.091,15.397C29.771,34.342,25.703,38.412,20.682,38.412z
			 M32.5,24.775h-0.218c-1.458-3.151-3.265-6.129-5.384-8.88c0.035-0.112,0.084-0.219,0.146-0.319c1.533-2.851,3.36-5.532,5.455-8
			c2.979,3.637,6.362,8.564,6.362,10.836C38.863,21.927,36.016,24.775,32.5,24.775z"/>
	</g>
</g>
</svg>
