<?xml version="1.0" encoding="utf-8"?>
<!-- Generator: Adobe Illustrator 16.0.0, SVG Export Plug-In . SVG Version: 6.00 Build 0)  -->
<!DOCTYPE svg PUBLIC "-//W3C//DTD SVG 1.1//EN" "http://www.w3.org/Graphics/SVG/1.1/DTD/svg11.dtd">
<svg version="1.1" id="Layer_1" xmlns="http://www.w3.org/2000/svg" xmlns:xlink="http://www.w3.org/1999/xlink" x="0px" y="0px"
	 width="60px" height="60px" viewBox="0 0 60 60" enable-background="new 0 0 60 60" xml:space="preserve">
<g id="Layer_1_1_">
</g>
<g id="Capa_1">
	<g>
		<g id="calendar_1_">
			<path fill="#FFFFFF" d="M46.665,13.75h-5.416v-2.5c0-0.691-0.56-1.25-1.25-1.25c-0.692,0-1.25,0.559-1.25,1.25v2.5h-7.5v-2.5
				c0-0.691-0.562-1.25-1.25-1.25c-0.689,0-1.25,0.559-1.25,1.25v2.5h-7.5v-2.5c0-0.691-0.561-1.25-1.25-1.25s-1.25,0.559-1.25,1.25
				v2.5h-5.416c-1.841,0-3.333,1.491-3.333,3.333v29.583C10,48.508,11.492,50,13.333,50h33.333C48.508,50,50,48.508,50,46.666
				V17.083C49.999,15.242,48.508,13.75,46.665,13.75z M47.499,46.666c0,0.461-0.374,0.834-0.832,0.834H13.333
				c-0.46,0-0.833-0.373-0.833-0.834V17.083c0-0.458,0.374-0.833,0.833-0.833h5.416v2.5c0,0.691,0.561,1.25,1.25,1.25
				c0.689,0,1.25-0.559,1.25-1.25v-2.5h7.5v2.5c0,0.691,0.561,1.25,1.25,1.25s1.25-0.559,1.25-1.25v-2.5h7.499v2.5
				c0,0.691,0.56,1.25,1.25,1.25c0.691,0,1.25-0.559,1.25-1.25v-2.5h5.418c0.459,0,0.832,0.375,0.832,0.833v29.583H47.499z"/>
			<rect x="18.749" y="25" fill="#FFFFFF" width="5" height="3.75"/>
			<rect x="18.749" y="31.25" fill="#FFFFFF" width="5" height="3.75"/>
			<rect x="18.749" y="37.5" fill="#FFFFFF" width="5" height="3.75"/>
			<rect x="27.499" y="37.5" fill="#FFFFFF" width="5" height="3.75"/>
			<rect x="27.499" y="31.25" fill="#FFFFFF" width="5" height="3.75"/>
			<rect x="27.499" y="25" fill="#FFFFFF" width="5" height="3.75"/>
			<rect x="36.249" y="37.5" fill="#FFFFFF" width="5" height="3.75"/>
			<rect x="36.249" y="31.25" fill="#FFFFFF" width="5" height="3.75"/>
			<rect x="36.249" y="25" fill="#FFFFFF" width="5" height="3.75"/>
		</g>
	</g>
</g>
</svg>
