<?xml version="1.0" encoding="utf-8"?>
<!-- Generator: Adobe Illustrator 16.0.0, SVG Export Plug-In . SVG Version: 6.00 Build 0)  -->
<!DOCTYPE svg PUBLIC "-//W3C//DTD SVG 1.1//EN" "http://www.w3.org/Graphics/SVG/1.1/DTD/svg11.dtd">
<svg version="1.1" id="Capa_1" xmlns="http://www.w3.org/2000/svg" xmlns:xlink="http://www.w3.org/1999/xlink" x="0px" y="0px"
	 width="60px" height="78px" viewBox="0 0 60 78" enable-background="new 0 0 60 78" xml:space="preserve">
<g>
	<g>
		<g>
			<g>
				<path fill="#E9E9E0" d="M59.5,76.419c0,0.552-0.448,1-1,1h-57c-0.552,0-1-0.448-1-1V1.581c0-0.552,0.448-1,1-1h41.535
					L59.5,17.047V76.419z"/>
				<polygon fill="#D9D7CA" points="43.081,0.581 43.081,17 59.5,17 				"/>
			</g>
			<path opacity="0.5" fill="#869ED6" d="M0.5,54.093v22.326c0,0.552,0.448,1,1,1h57c0.552,0,1-0.448,1-1V54.093H0.5z"/>
		</g>
		<polygon fill="#869ED6" points="0.5,54.093 23.849,34.221 31.373,41.745 45.779,25.965 59.5,39 59.5,54.093 		"/>
	</g>
	<circle fill="#F3D55B" cx="17.566" cy="20.367" r="6.259"/>
	<g>
		<path fill="#FFFFFF" d="M19.768,59.102v10.768c0,0.65-0.12,1.199-0.357,1.641c-0.238,0.444-0.558,0.801-0.957,1.07
			c-0.401,0.269-0.86,0.456-1.379,0.563c-0.52,0.105-1.053,0.159-1.604,0.159c-0.275,0-0.598-0.028-0.966-0.084
			c-0.369-0.057-0.75-0.144-1.144-0.263s-0.772-0.254-1.135-0.403s-0.669-0.318-0.919-0.506l0.956-1.52
			c0.125,0.087,0.304,0.178,0.536,0.271c0.23,0.095,0.484,0.182,0.76,0.262c0.275,0.083,0.563,0.152,0.863,0.216
			c0.301,0.063,0.583,0.094,0.845,0.094c0.663,0,1.19-0.128,1.584-0.384c0.394-0.255,0.603-0.691,0.628-1.304v-10.58H19.768z"/>
		<path fill="#FFFFFF" d="M25.377,73.209h-2.252V59.383h3.977c0.588,0,1.169,0.093,1.744,0.281c0.575,0.188,1.091,0.469,1.547,0.843
			c0.458,0.375,0.826,0.83,1.107,1.36c0.282,0.531,0.424,1.129,0.424,1.792c0,0.701-0.12,1.335-0.357,1.904
			c-0.237,0.569-0.569,1.049-0.995,1.436c-0.426,0.388-0.939,0.688-1.538,0.9c-0.6,0.212-1.264,0.317-1.988,0.317h-1.67v4.992
			H25.377z M25.377,61.09v5.479h2.063c0.274,0,0.546-0.046,0.816-0.142c0.269-0.094,0.516-0.247,0.741-0.46
			c0.225-0.212,0.406-0.509,0.543-0.89c0.138-0.382,0.206-0.854,0.206-1.416c0-0.226-0.031-0.486-0.093-0.778
			c-0.063-0.294-0.191-0.574-0.384-0.844c-0.195-0.27-0.466-0.495-0.816-0.675c-0.351-0.183-0.814-0.274-1.388-0.274H25.377z"/>
		<path fill="#FFFFFF" d="M44.566,66.08v5.345c-0.288,0.364-0.609,0.659-0.966,0.891c-0.357,0.232-0.731,0.424-1.125,0.573
			c-0.394,0.149-0.8,0.256-1.22,0.317c-0.419,0.066-0.833,0.096-1.248,0.096c-0.825,0-1.584-0.148-2.279-0.449
			c-0.694-0.301-1.3-0.743-1.819-1.333c-0.519-0.588-0.926-1.325-1.219-2.213c-0.294-0.888-0.441-1.914-0.441-3.076
			s0.146-2.186,0.441-3.067c0.293-0.882,0.699-1.615,1.219-2.202c0.519-0.589,1.127-1.035,1.829-1.342
			c0.7-0.308,1.458-0.46,2.269-0.46c0.751,0,1.452,0.125,2.101,0.374c0.65,0.252,1.23,0.626,1.744,1.125l-1.557,1.389
			c-0.301-0.363-0.645-0.625-1.032-0.787c-0.388-0.161-0.788-0.245-1.201-0.245c-0.462,0-0.904,0.087-1.323,0.264
			c-0.419,0.175-0.794,0.472-1.125,0.89c-0.332,0.419-0.591,0.959-0.778,1.622c-0.187,0.665-0.288,1.476-0.3,2.439
			c0.012,0.938,0.11,1.751,0.291,2.438c0.181,0.688,0.431,1.251,0.75,1.688c0.32,0.438,0.682,0.763,1.088,0.977
			c0.406,0.213,0.835,0.318,1.286,0.318c0.137,0,0.321-0.01,0.552-0.029c0.231-0.019,0.462-0.05,0.695-0.093
			c0.23-0.045,0.453-0.104,0.665-0.18c0.212-0.074,0.369-0.181,0.47-0.317v-3.413H39.99v-1.539h4.577V66.08z"/>
	</g>
</g>
</svg>
