<?xml version="1.0" encoding="utf-8"?>
<!-- Generator: Adobe Illustrator 16.0.0, SVG Export Plug-In . SVG Version: 6.00 Build 0)  -->
<!DOCTYPE svg PUBLIC "-//W3C//DTD SVG 1.1//EN" "http://www.w3.org/Graphics/SVG/1.1/DTD/svg11.dtd">
<svg version="1.1" id="Layer_1" xmlns="http://www.w3.org/2000/svg" xmlns:xlink="http://www.w3.org/1999/xlink" x="0px" y="0px"
	 width="45px" height="45px" viewBox="0 0 45 45" enable-background="new 0 0 45 45" xml:space="preserve">
<g id="Capa_1">
	<g>
		<g>
			<polygon fill="#FFFFFF" points="12.5,25 10,25 10,27.5 7.5,27.5 7.5,30 10,30 10,32.5 12.5,32.5 12.5,30 15,30 15,27.5 
				12.5,27.5 			"/>
			<polygon fill="#FFFFFF" points="7.5,20 12.5,20 12.5,15 17.5,15 17.5,10 12.5,10 12.5,5 7.5,5 7.5,10 2.5,10 2.5,15 7.5,15 			
				"/>
			<path fill="#FFFFFF" d="M32.5,8.75c0-3.452-2.799-6.25-6.25-6.25C22.797,2.5,20,5.298,20,8.75v18.893
				c-1.543,1.576-2.5,3.728-2.5,6.107c0,4.834,3.918,8.75,8.75,8.75c4.834,0,8.75-3.916,8.75-8.75c0-2.381-0.957-4.531-2.501-6.107
				L32.5,8.75L32.5,8.75z M26.25,40c-0.26,0-0.514-0.027-0.758-0.073C22.402,39.546,20,36.943,20,33.75
				c0-2.036,0.99-3.828,2.5-4.971V8.75C22.5,6.68,24.18,5,26.25,5S30,6.68,30,8.75v20.029c1.512,1.143,2.5,2.936,2.5,4.971
				C32.5,37.202,29.701,40,26.25,40z"/>
			<path fill="#FFFFFF" d="M27.5,30.229V12.5H25v17.729c-1.453,0.517-2.5,1.892-2.5,3.521c0,2.07,1.68,3.75,3.748,3.75
				c2.07,0,3.75-1.682,3.75-3.75C30,32.119,28.953,30.747,27.5,30.229z"/>
			<polygon fill="#FFFFFF" points="40,10 40,7.5 37.5,7.5 37.5,10 35,10 35,12.5 37.5,12.5 37.5,15 40,15 40,12.5 42.5,12.5 
				42.5,10 			"/>
		</g>
	</g>
</g>
</svg>
