<?xml version="1.0" encoding="utf-8"?>
<!-- Generator: Adobe Illustrator 16.0.0, SVG Export Plug-In . SVG Version: 6.00 Build 0)  -->
<!DOCTYPE svg PUBLIC "-//W3C//DTD SVG 1.1//EN" "http://www.w3.org/Graphics/SVG/1.1/DTD/svg11.dtd">
<svg version="1.1" id="Layer_1" xmlns="http://www.w3.org/2000/svg" xmlns:xlink="http://www.w3.org/1999/xlink" x="0px" y="0px"
	 width="23px" height="23px" viewBox="0 0 23 23" enable-background="new 0 0 23 23" xml:space="preserve">
<g>
	<path fill="#71C386" d="M11.5,0C5.147,0,0,5.147,0,11.5S5.147,23,11.5,23S23,17.853,23,11.5S17.853,0,11.5,0z M17.009,12.5H12.5
		v4.509c0,0.553-0.448,1-1,1s-1-0.447-1-1V12.5H5.991c-0.553,0-1-0.448-1-1s0.447-1,1-1H10.5V5.991c0-0.552,0.448-1,1-1s1,0.448,1,1
		V10.5h4.509c0.552,0,1,0.448,1,1S17.561,12.5,17.009,12.5z"/>
	<path fill="#FFFFFF" d="M17.009,10.5H12.5V5.991c0-0.552-0.448-1-1-1s-1,0.448-1,1V10.5H5.991c-0.553,0-1,0.448-1,1s0.447,1,1,1
		H10.5v4.509c0,0.553,0.448,1,1,1s1-0.447,1-1V12.5h4.509c0.552,0,1-0.448,1-1S17.561,10.5,17.009,10.5z"/>
</g>
</svg>
