<?xml version="1.0" encoding="utf-8"?>
<!-- Generator: Adobe Illustrator 16.0.0, SVG Export Plug-In . SVG Version: 6.00 Build 0)  -->
<!DOCTYPE svg PUBLIC "-//W3C//DTD SVG 1.1//EN" "http://www.w3.org/Graphics/SVG/1.1/DTD/svg11.dtd">
<svg version="1.1" id="Layer_1" xmlns="http://www.w3.org/2000/svg" xmlns:xlink="http://www.w3.org/1999/xlink" x="0px" y="0px"
	 width="15px" height="15px" viewBox="0 0 15 15" enable-background="new 0 0 15 15" xml:space="preserve">
<g>
	<path fill="#FFFFFF" d="M7.5,14.504c-3.862,0-7.004-3.143-7.004-7.004c0-3.862,3.142-7.004,7.004-7.004
		c3.861,0,7.004,3.142,7.004,7.004C14.504,11.361,11.361,14.504,7.5,14.504z"/>
	<path fill="#CCCCCC" d="M7.5,0.996c3.586,0,6.504,2.917,6.504,6.504c0,3.586-2.918,6.504-6.504,6.504S0.996,11.086,0.996,7.5
		S3.914,0.996,7.5,0.996 M7.5-0.004c-4.145,0-7.504,3.359-7.504,7.504c0,4.145,3.359,7.504,7.504,7.504
		c4.146,0,7.504-3.359,7.504-7.504C15.004,3.355,11.646-0.004,7.5-0.004L7.5-0.004z"/>
</g>
<g>
	<circle fill="#4B9700" cx="7.5" cy="7.5" r="4.331"/>
</g>
</svg>
