<?xml version="1.0" encoding="utf-8"?>
<!-- Generator: Adobe Illustrator 16.0.0, SVG Export Plug-In . SVG Version: 6.00 Build 0)  -->
<!DOCTYPE svg PUBLIC "-//W3C//DTD SVG 1.1//EN" "http://www.w3.org/Graphics/SVG/1.1/DTD/svg11.dtd">
<svg version="1.1" xmlns="http://www.w3.org/2000/svg" xmlns:xlink="http://www.w3.org/1999/xlink" x="0px" y="0px"
	 width="18.666px" height="14px" viewBox="0 0 18.666 14" enable-background="new 0 0 18.666 14" xml:space="preserve">
<g id="Layer_1">
</g>
<g id="Capa_1">
	<g>
		<path fill="#DDDCDC" d="M18.666,11.666c0,0.41-0.115,0.789-0.299,1.123l-5.895-6.594l5.83-5.101
			c0.227,0.36,0.363,0.783,0.363,1.24V11.666L18.666,11.666z M9.332,7.392l8.113-7.098C17.111,0.112,16.736,0,16.332,0H2.333
			C1.928,0,1.554,0.112,1.222,0.294L9.332,7.392z M11.594,6.962L9.717,8.606C9.607,8.702,9.471,8.75,9.332,8.75
			c-0.137,0-0.273-0.048-0.383-0.144L7.071,6.962l-5.968,6.678C1.46,13.865,1.88,14,2.333,14h13.999c0.453,0,0.873-0.135,1.23-0.359
			L11.594,6.962z M0.363,1.094C0.137,1.454,0,1.876,0,2.333v9.333c0,0.41,0.114,0.789,0.3,1.123l5.892-6.596L0.363,1.094z"/>
	</g>
</g>
</svg>
