<?xml version="1.0" encoding="utf-8"?>
<!-- Generator: Adobe Illustrator 16.0.0, SVG Export Plug-In . SVG Version: 6.00 Build 0)  -->
<!DOCTYPE svg PUBLIC "-//W3C//DTD SVG 1.1//EN" "http://www.w3.org/Graphics/SVG/1.1/DTD/svg11.dtd">
<svg version="1.1" id="Layer_1" xmlns="http://www.w3.org/2000/svg" xmlns:xlink="http://www.w3.org/1999/xlink" x="0px" y="0px"
	 width="17px" height="17px" viewBox="0 0 17 17" enable-background="new 0 0 17 17" xml:space="preserve">
<g>
	<path fill="#665B5A" d="M14.509,2.491C12.906,0.885,10.769,0,8.5,0S4.094,0.885,2.491,2.491C0.888,4.097,0,6.231,0,8.5
		s0.885,4.406,2.491,6.009C4.097,16.112,6.231,17,8.5,17s4.406-0.885,6.009-2.491C16.112,12.903,17,10.769,17,8.5
		S16.115,4.094,14.509,2.491z M16.23,8.118h-3.296c-0.031-1.311-0.215-2.574-0.538-3.695c0.628-0.323,1.214-0.729,1.752-1.207
		C15.362,4.514,16.136,6.228,16.23,8.118z M8.882,8.882h3.292c-0.028,1.207-0.194,2.362-0.482,3.396
		c-0.888-0.357-1.835-0.566-2.81-0.611V8.882z M13.6,2.686c-0.444,0.392-0.93,0.725-1.443,1.002
		c-0.132-0.368-0.281-0.715-0.448-1.041c-0.33-0.652-0.704-1.187-1.117-1.596C11.72,1.367,12.743,1.933,13.6,2.686z M8.882,0.881
		c0.794,0.177,1.543,0.909,2.147,2.103c0.163,0.322,0.309,0.666,0.437,1.03C10.651,4.351,9.78,4.548,8.882,4.593V0.881z
		 M11.695,4.746c0.285,1.027,0.448,2.175,0.475,3.376H8.882V5.36C9.86,5.315,10.807,5.104,11.695,4.746z M8.118,8.118H4.826
		c0.028-1.2,0.191-2.349,0.476-3.375c0.888,0.361,1.839,0.569,2.813,0.61v2.765H8.118z M8.122,0.881v3.712
		C7.223,4.548,6.349,4.351,5.537,4.014c0.128-0.364,0.274-0.708,0.437-1.03C6.578,1.79,7.327,1.058,8.122,0.881z M6.412,1.051
		C5.999,1.46,5.624,1.999,5.294,2.647C5.131,2.973,4.982,3.32,4.847,3.688C4.333,3.41,3.851,3.077,3.403,2.686
		C4.26,1.933,5.284,1.367,6.412,1.051L6.412,1.051z M2.855,3.216c0.538,0.479,1.124,0.881,1.752,1.207
		C4.285,5.547,4.097,6.807,4.07,8.118H0.773C0.867,6.228,1.641,4.514,2.855,3.216z M0.773,8.882H4.07
		c0.031,1.322,0.218,2.588,0.544,3.715c-0.625,0.323-1.211,0.722-1.745,1.201C1.645,12.497,0.867,10.779,0.773,8.882z M3.417,14.329
		c0.444-0.389,0.926-0.722,1.436-0.996c0.132,0.357,0.278,0.701,0.441,1.02c0.33,0.652,0.704,1.187,1.117,1.599
		C5.291,15.637,4.271,15.075,3.417,14.329L3.417,14.329z M8.122,16.119c-0.795-0.177-1.544-0.909-2.148-2.103
		c-0.16-0.315-0.302-0.652-0.43-1.009c0.812-0.336,1.683-0.534,2.578-0.576V16.119L8.122,16.119z M5.312,12.278
		c-0.288-1.034-0.455-2.189-0.482-3.396h3.292v2.786C7.147,11.709,6.2,11.917,5.312,12.278L5.312,12.278z M8.885,16.119v-3.688
		c0.895,0.045,1.766,0.24,2.578,0.576c-0.128,0.357-0.271,0.694-0.43,1.009C10.429,15.21,9.68,15.942,8.885,16.119L8.885,16.119z
		 M10.596,15.949c0.413-0.409,0.787-0.947,1.117-1.599c0.163-0.319,0.309-0.663,0.441-1.02c0.51,0.274,0.992,0.607,1.436,0.996
		C12.736,15.075,11.716,15.637,10.596,15.949L10.596,15.949z M14.141,13.798c-0.534-0.476-1.121-0.878-1.745-1.201
		c0.326-1.127,0.514-2.397,0.545-3.715h3.296C16.14,10.779,15.362,12.497,14.141,13.798L14.141,13.798z"/>
</g>
</svg>
