<?xml version="1.0" encoding="utf-8"?>
<!-- Generator: Adobe Illustrator 16.0.0, SVG Export Plug-In . SVG Version: 6.00 Build 0)  -->
<!DOCTYPE svg PUBLIC "-//W3C//DTD SVG 1.1//EN" "http://www.w3.org/Graphics/SVG/1.1/DTD/svg11.dtd">
<svg version="1.1" id="Layer_1" xmlns="http://www.w3.org/2000/svg" xmlns:xlink="http://www.w3.org/1999/xlink" x="0px" y="0px"
	 width="45px" height="45px" viewBox="0 0 45 45" enable-background="new 0 0 45 45" xml:space="preserve">
<g id="Capa_1">
	<g>
		<path fill="#FFFFFF" d="M6.152,14.408c3.882-3.333,6.95-5.97,15.27-1.269c3.998,2.258,7.224,3.111,9.907,3.111
			c4.697,0,7.744-2.615,10.378-4.877c0.94-0.806,1.062-2.238,0.271-3.198c-0.791-0.959-2.19-1.083-3.131-0.275
			c-3.883,3.335-6.949,5.97-15.271,1.269C12.58,2.957,7.43,7.38,3.292,10.935c-0.939,0.807-1.061,2.238-0.27,3.198
			C3.811,15.091,5.212,15.214,6.152,14.408z M38.847,19.246c-3.883,3.335-6.949,5.971-15.271,1.269
			C12.58,14.304,7.43,18.728,3.292,22.283c-0.939,0.807-1.061,2.237-0.27,3.196c0.79,0.959,2.192,1.084,3.131,0.274
			c3.882-3.334,6.95-5.97,15.27-1.271c3.998,2.26,7.225,3.111,9.907,3.111c4.696,0,7.744-2.615,10.378-4.878
			c0.939-0.808,1.063-2.238,0.271-3.197S39.786,18.439,38.847,19.246z M38.847,30.594c-3.883,3.335-6.949,5.972-15.271,1.269
			c-10.996-6.211-16.146-1.786-20.284,1.769c-0.939,0.808-1.061,2.238-0.27,3.198c0.79,0.958,2.192,1.083,3.131,0.275
			c3.882-3.336,6.949-5.971,15.27-1.271c3.998,2.259,7.224,3.108,9.907,3.108c4.697,0,7.744-2.612,10.378-4.877
			c0.94-0.807,1.062-2.237,0.271-3.196S39.786,29.788,38.847,30.594z"/>
	</g>
</g>
</svg>
