<?xml version="1.0" encoding="utf-8"?>
<!-- Generator: Adobe Illustrator 16.0.0, SVG Export Plug-In . SVG Version: 6.00 Build 0)  -->
<!DOCTYPE svg PUBLIC "-//W3C//DTD SVG 1.1//EN" "http://www.w3.org/Graphics/SVG/1.1/DTD/svg11.dtd">
<svg version="1.1" id="Capa_1" xmlns="http://www.w3.org/2000/svg" xmlns:xlink="http://www.w3.org/1999/xlink" x="0px" y="0px"
	 width="16px" height="16px" viewBox="0 0 16 16" enable-background="new 0 0 16 16" xml:space="preserve">
<g>
	<g id="calendar_1_">
		<path fill="#382D2B" d="M14.667,1.5H12.5v-1C12.5,0.224,12.276,0,12,0s-0.5,0.224-0.5,0.5v1h-3v-1C8.5,0.224,8.276,0,8,0
			S7.5,0.224,7.5,0.5v1h-3v-1C4.5,0.224,4.276,0,4,0S3.5,0.224,3.5,0.5v1H1.333C0.597,1.5,0,2.097,0,2.833v11.833
			C0,15.403,0.597,16,1.333,16h13.333C15.403,16,16,15.403,16,14.667V2.833C16,2.097,15.403,1.5,14.667,1.5z M15,14.667
			C15,14.851,14.851,15,14.667,15H1.333C1.149,15,1,14.851,1,14.667V2.833C1,2.649,1.149,2.5,1.333,2.5H3.5v1C3.5,3.776,3.724,4,4,4
			s0.5-0.224,0.5-0.5v-1h3v1C7.5,3.776,7.724,4,8,4s0.5-0.224,0.5-0.5v-1h3v1C11.5,3.776,11.724,4,12,4s0.5-0.224,0.5-0.5v-1h2.167
			C14.851,2.5,15,2.649,15,2.833V14.667z"/>
		<rect x="3.5" y="6" fill="#382D2B" width="2" height="1.5"/>
		<rect x="3.5" y="8.5" fill="#382D2B" width="2" height="1.5"/>
		<rect x="3.5" y="11" fill="#382D2B" width="2" height="1.5"/>
		<rect x="7" y="11" fill="#382D2B" width="2" height="1.5"/>
		<rect x="7" y="8.5" fill="#382D2B" width="2" height="1.5"/>
		<rect x="7" y="6" fill="#382D2B" width="2" height="1.5"/>
		<rect x="10.5" y="11" fill="#382D2B" width="2" height="1.5"/>
		<rect x="10.5" y="8.5" fill="#382D2B" width="2" height="1.5"/>
		<rect x="10.5" y="6" fill="#382D2B" width="2" height="1.5"/>
	</g>
</g>
</svg>
