<?xml version="1.0" encoding="utf-8"?>
<!-- Generator: Adobe Illustrator 16.0.0, SVG Export Plug-In . SVG Version: 6.00 Build 0)  -->
<!DOCTYPE svg PUBLIC "-//W3C//DTD SVG 1.1//EN" "http://www.w3.org/Graphics/SVG/1.1/DTD/svg11.dtd">
<svg version="1.1" id="Capa_1" xmlns="http://www.w3.org/2000/svg" xmlns:xlink="http://www.w3.org/1999/xlink" x="0px" y="0px"
	 width="20px" height="20px" viewBox="0 0 20 20" enable-background="new 0 0 20 20" xml:space="preserve">
<g>
	<g id="check-circle-outline">
		<path fill="#869ED6" d="M5.9,8.1L4.5,9.5L9,14L19,4l-1.4-1.4L9,11.2L5.9,8.1z M18,10c0,4.4-3.6,8-8,8s-8-3.6-8-8s3.6-8,8-8
			c0.8,0,1.5,0.1,2.2,0.3l1.6-1.6C12.6,0.3,11.3,0,10,0C4.5,0,0,4.5,0,10s4.5,10,10,10s10-4.5,10-10H18z"/>
	</g>
</g>
</svg>
