<?xml version="1.0" encoding="utf-8"?>
<!-- Generator: Adobe Illustrator 16.0.0, SVG Export Plug-In . SVG Version: 6.00 Build 0)  -->
<!DOCTYPE svg PUBLIC "-//W3C//DTD SVG 1.1//EN" "http://www.w3.org/Graphics/SVG/1.1/DTD/svg11.dtd">
<svg version="1.1" id="Layer_1" xmlns="http://www.w3.org/2000/svg" xmlns:xlink="http://www.w3.org/1999/xlink" x="0px" y="0px"
	 width="60px" height="60px" viewBox="0 0 60 60" enable-background="new 0 0 60 60" xml:space="preserve">
<path fill="#FFFFFF" d="M39.168,13.95c-1.883,0.489-3.019,2.42-2.53,4.305l0.263,1.009L15.784,31.91
	c-0.763-1.001-2.08-1.502-3.372-1.168c-1.719,0.448-2.755,2.209-2.308,3.929l1.78,6.853c0.447,1.721,2.208,2.756,3.928,2.31
	c1.293-0.335,2.198-1.414,2.378-2.661l2.033,0.064c-0.172,0.374-0.284,0.779-0.3,1.205c-0.033,0.86,0.271,1.682,0.855,2.314
	c0.584,0.631,1.38,0.997,2.239,1.031l9.674,0.374c0.316,0.013,0.63-0.021,0.936-0.101c1.365-0.355,2.355-1.587,2.409-2.994
	c0.018-0.468-0.073-0.921-0.245-1.342l7,0.22l0.262,1.008c0.489,1.884,2.422,3.019,4.305,2.529c1.885-0.489,3.018-2.421,2.528-4.304
	l-6.415-24.699C42.982,14.595,41.052,13.46,39.168,13.95z M15.32,41.939c-0.676,0.177-1.368-0.23-1.543-0.907l-1.78-6.853
	c-0.175-0.677,0.231-1.369,0.907-1.544c0.676-0.176,1.368,0.23,1.544,0.907l1.78,6.853C16.403,41.071,15.996,41.766,15.32,41.939z
	 M32.866,41.677c0.338,0.012,0.65,0.155,0.88,0.403c0.23,0.248,0.35,0.571,0.337,0.911c-0.026,0.677-0.626,1.245-1.315,1.216
	l-9.674-0.376c-0.337-0.013-0.65-0.156-0.88-0.404s-0.349-0.57-0.335-0.909c0.021-0.555,0.411-1.039,0.947-1.178
	c0.052-0.014,0.106-0.011,0.161-0.018l4.036,0.128L32.866,41.677z M27.128,39.496l-3.862-0.149c-0.145-0.006-0.29,0.002-0.433,0.015
	l-4.894-0.153l-1.418-5.461l20.893-12.511l4.865,18.736L27.128,39.496z M47.995,41.669c0.219,0.84-0.289,1.701-1.128,1.92
	c-0.841,0.218-1.702-0.288-1.92-1.128l-0.446-1.718L38.978,19.48l-0.446-1.718c-0.219-0.841,0.287-1.702,1.129-1.92
	c0.84-0.219,1.701,0.289,1.919,1.128L47.995,41.669z"/>
</svg>
