<?xml version="1.0" encoding="utf-8"?>
<!-- Generator: Adobe Illustrator 16.0.0, SVG Export Plug-In . SVG Version: 6.00 Build 0)  -->
<!DOCTYPE svg PUBLIC "-//W3C//DTD SVG 1.1//EN" "http://www.w3.org/Graphics/SVG/1.1/DTD/svg11.dtd">
<svg version="1.1" id="Layer_1" xmlns="http://www.w3.org/2000/svg" xmlns:xlink="http://www.w3.org/1999/xlink" x="0px" y="0px"
	 width="45px" height="45px" viewBox="0 0 45 45" enable-background="new 0 0 45 45" xml:space="preserve">
<g id="Capa_1">
	<g>
		<path fill="#FFFFFF" d="M12.499,42.247l12.802-12.861c0.526-0.524,0.151-1.422-0.591-1.422h-1.021
			c-0.695,0-1.087-0.804-0.654-1.35l6.789-8.561c0.434-0.547,0.046-1.351-0.653-1.351h-3.413c-0.688,0-1.078-0.783-0.667-1.333
			l8.671-11.535C34.175,3.283,33.782,2.5,33.096,2.5H19.379c-0.316,0-0.607,0.18-0.746,0.462l-6.705,13.566
			c-0.275,0.554,0.13,1.204,0.747,1.204h3.092c0.617,0,1.021,0.65,0.746,1.204l-4.585,9.277c-0.275,0.555,0.13,1.205,0.747,1.205
			h2.913c0.617,0,1.017,0.641,0.75,1.196l-5.177,10.682C10.748,42.143,11.836,42.915,12.499,42.247z"/>
	</g>
</g>
</svg>
