<?xml version="1.0" encoding="utf-8"?>
<!-- Generator: Adobe Illustrator 16.0.0, SVG Export Plug-In . SVG Version: 6.00 Build 0)  -->
<!DOCTYPE svg PUBLIC "-//W3C//DTD SVG 1.1//EN" "http://www.w3.org/Graphics/SVG/1.1/DTD/svg11.dtd">
<svg version="1.1" id="Capa_1" xmlns="http://www.w3.org/2000/svg" xmlns:xlink="http://www.w3.org/1999/xlink" x="0px" y="0px"
	 width="42px" height="42px" viewBox="0 0 42 42" enable-background="new 0 0 42 42" xml:space="preserve">
<g>
	<circle fill="#FFFFFF" cx="7.357" cy="4.977" r="3.945"/>
	<path fill="#FFFFFF" d="M2.956,22.744h0.391v7.823c0,1.076,0.88,1.956,1.956,1.956h4.107c1.076,0,1.956-0.88,1.956-1.956v-0.456
		c-0.358-0.685-0.587-1.467-0.587-2.281V17.593c0-1.988,1.207-3.716,2.934-4.466v-0.782c0-1.076-0.88-1.956-1.956-1.956H2.956
		C1.88,10.389,1,11.269,1,12.345v8.443C1,21.864,1.848,22.744,2.956,22.744z"/>
	<circle fill="#FFFFFF" cx="34.676" cy="4.977" r="3.945"/>
	<path fill="#FFFFFF" d="M28.286,12.313v0.782c1.728,0.749,2.934,2.478,2.934,4.466v10.204c0,0.814-0.196,1.598-0.586,2.281v0.457
		c0,1.076,0.88,1.956,1.956,1.956h4.108c1.076,0,1.956-0.88,1.956-1.956v-7.824h0.391c1.076,0,1.956-0.88,1.956-1.956v-8.41
		c0-1.076-0.88-1.956-1.956-1.956h-8.802C29.167,10.356,28.286,11.236,28.286,12.313z"/>
	<path fill="#FFFFFF" d="M13.747,17.593L13.747,17.593v3.195v7.041c0,1.076,0.88,1.956,1.956,1.956h0.75v9.227
		c0,1.075,0.88,1.956,1.956,1.956h5.249c1.076,0,1.956-0.881,1.956-1.956v-9.259h0.75c1.076,0,1.956-0.88,1.956-1.956v-7.009v-3.195
		l0,0c0-1.075-0.88-1.955-1.956-1.955h-10.66C14.594,15.637,13.747,16.518,13.747,17.593z"/>
	<circle fill="#FFFFFF" cx="21.017" cy="9.476" r="4.531"/>
</g>
</svg>
