<?xml version="1.0" encoding="utf-8"?>
<!-- Generator: Adobe Illustrator 16.0.0, SVG Export Plug-In . SVG Version: 6.00 Build 0)  -->
<!DOCTYPE svg PUBLIC "-//W3C//DTD SVG 1.1//EN" "http://www.w3.org/Graphics/SVG/1.1/DTD/svg11.dtd">
<svg version="1.1" id="Layer_1" xmlns="http://www.w3.org/2000/svg" xmlns:xlink="http://www.w3.org/1999/xlink" x="0px" y="0px"
	 width="256px" height="169px" viewBox="0 0 256 169" enable-background="new 0 0 256 169" xml:space="preserve">
<g id="XMLID_1_">
	<g>
		<path fill="#869ED6" d="M122.774,167.549v-13.18c0-0.744,0.366-1.13,0.94-1.13c0.575,0,0.941,0.386,0.941,1.13v5.758h7.997v-5.758
			c0-0.744,0.366-1.13,0.94-1.13c0.575,0,0.934,0.386,0.934,1.13v13.18c0,0.751-0.359,1.137-0.934,1.137
			c-0.575,0-0.94-0.386-0.94-1.137v-5.798h-7.997v5.798c0,0.751-0.366,1.137-0.941,1.137
			C123.14,168.686,122.774,168.3,122.774,167.549z"/>
		<path fill="#869ED6" d="M179.874,154.389c0.237-0.656,0.622-1.15,1.346-1.15s1.11,0.494,1.34,1.15l4.716,12.564
			c0.068,0.196,0.257,0.683,0.257,0.94c0,0.487-0.406,0.792-0.894,0.792c-0.514,0-0.771-0.304-0.92-0.71l-0.981-2.727h-7.037
			l-0.981,2.727c-0.149,0.406-0.406,0.71-0.92,0.71c-0.487,0-0.893-0.304-0.893-0.792c0-0.257,0.189-0.744,0.257-0.94
			L179.874,154.389z M181.199,155.417l-2.923,8.207h5.887l-2.923-8.207H181.199z"/>
		<path fill="#869ED6" d="M194.055,156.669v11.009c0,0.622-0.366,1.008-0.941,1.008c-0.575,0-0.94-0.386-0.94-1.008v-13.329
			c0-0.745,0.257-1.11,0.853-1.11c0.555,0,0.812,0.237,1.326,0.981l7.68,11.029h0.041V154.24c0-0.616,0.365-1.001,0.94-1.001
			s0.94,0.386,0.94,1.001v13.336c0,0.744-0.257,1.109-0.859,1.109c-0.555,0-0.805-0.237-1.319-0.981l-7.679-11.036H194.055z"/>
		<path fill="#869ED6" d="M225.05,167.529V154.24c0-0.616,0.365-1.001,0.94-1.001s0.94,0.386,0.94,1.001v12.564h4.005
			c0.535,0,0.92,0.277,0.92,0.873c0,0.602-0.386,0.873-0.92,0.873h-4.878C225.348,168.55,225.05,168.11,225.05,167.529z"/>
		<path fill="#869ED6" d="M255.998,3.364V127.46c-0.054,1.55-1.265,2.781-2.788,2.882H232.02c-1.144-0.399-1.976-1.475-2.003-2.76
			V26.436h-15.318c-1.597-0.034-2.882-1.313-2.937-2.909V3.31c0.068-1.502,1.225-2.706,2.707-2.855h38.654
			C254.692,0.516,255.951,1.788,255.998,3.364z"/>
		<path fill="#869ED6" d="M149.792,167.678v-13.289c0-0.575,0.298-1.022,1.001-1.022h5.332c0.535,0,0.92,0.277,0.92,0.873
			c0,0.595-0.385,0.873-0.92,0.873h-4.459v4.973h3.945c0.534,0,0.92,0.277,0.92,0.873c0,0.595-0.386,0.879-0.92,0.879h-3.945v5.839
			c0,0.622-0.358,1.008-0.934,1.008C150.15,168.686,149.792,168.3,149.792,167.678z"/>
		<path fill="#869ED6" d="M44.221,127.365c-0.068,1.522-1.272,2.734-2.781,2.835H20.255c-0.582-0.209-1.089-0.588-1.441-1.076
			c-0.358-0.487-0.568-1.089-0.568-1.739V26.294H2.934c-1.624-0.041-2.923-1.346-2.937-2.97V3.229
			c0.027-1.536,1.198-2.774,2.7-2.916h38.655c1.563,0.054,2.801,1.299,2.869,2.862V127.365z"/>
		<path fill="#869ED6" d="M40.587,153.367h3.261c0.365,0,0.575,0.041,0.575,0.508v13.803c0,0.622-0.359,1.008-0.94,1.008
			c-0.575,0-0.934-0.386-0.934-1.008v-12.693h-1.962c-0.454,0-0.812-0.358-0.812-0.805
			C39.775,153.733,40.134,153.367,40.587,153.367z"/>
		<path fill="#869ED6" d="M67.665,128.205v-21.252c0.142-1.279,1.103-2.328,2.328-2.591h101.579V78.393H69.898
			c-1.103-0.264-1.969-1.13-2.233-2.233V3.086c0.163-1.394,1.265-2.483,2.659-2.632h124.421c1.407,0.061,2.578,1.109,2.821,2.47
			v20.508c0,1.658-1.333,2.991-2.997,3.004H93.633v25.975h101.091c1.428,0.054,2.598,1.103,2.842,2.47v72.484
			c0,1.59-1.251,2.869-2.808,2.977H69.593C68.633,130.011,67.909,129.206,67.665,128.205z"/>
		<path fill="#869ED6" d="M16.534,153.367h3.268c0.358,0,0.575,0.041,0.575,0.508v13.803c0,0.622-0.365,1.008-0.94,1.008
			s-0.94-0.386-0.94-1.008v-12.693h-1.962c-0.447,0-0.812-0.358-0.812-0.805C15.722,153.733,16.087,153.367,16.534,153.367z"/>
		<path fill="#869ED6" d="M238.42,154.24v13.438c0,0.622-0.358,1.008-0.94,1.008c-0.568,0-0.934-0.386-0.934-1.008V154.24
			c0-0.616,0.365-1.001,0.934-1.001C238.062,153.239,238.42,153.625,238.42,154.24z"/>
		<path fill="#869ED6" d="M253.989,165.249V154.24c0-0.616,0.365-1.001,0.94-1.001s0.934,0.386,0.934,1.001v13.336
			c0,0.744-0.25,1.109-0.853,1.109c-0.555,0-0.805-0.237-1.319-0.981l-7.679-11.036h-0.041v11.009c0,0.622-0.365,1.008-0.94,1.008
			s-0.94-0.386-0.94-1.008v-13.329c0-0.745,0.257-1.11,0.853-1.11c0.555,0,0.812,0.237,1.326,0.981l7.68,11.029H253.989z"/>
		<path fill="#869ED6" d="M168.919,157.589c0-1.407-1.109-2.605-2.862-2.605h-2.517v5.399h2.564
			C168.066,160.384,168.919,159.552,168.919,157.589z M161.666,154.389c0-0.575,0.297-1.022,1.001-1.022h3.478
			c2.388,0,4.648,1.617,4.648,4.094c0,3.072-1.875,4.229-4.134,4.31l-0.812,0.02l4.845,5.312c0.25,0.277,0.358,0.514,0.358,0.853
			c0,0.406-0.386,0.73-0.853,0.73c-0.386,0-0.643-0.196-0.853-0.426l-5.805-6.36v5.778c0,0.622-0.358,1.008-0.934,1.008
			s-0.94-0.386-0.94-1.008V154.389z"/>
		<path fill="#869ED6" d="M209.617,167.678V154.24c0-0.616,0.366-1.001,0.94-1.001c0.575,0,0.934,0.386,0.934,1.001v5.548
			l6.509-5.954c0.338-0.318,0.643-0.595,1.021-0.595c0.474,0,0.812,0.325,0.812,0.812s-0.169,0.663-0.386,0.853l-6.225,5.609
			l6.8,6.57c0.305,0.277,0.386,0.494,0.386,0.765c0,0.453-0.406,0.839-0.914,0.839c-0.277,0-0.534-0.047-0.92-0.406l-7.084-6.956
			v6.354c0,0.622-0.359,1.008-0.934,1.008C209.982,168.686,209.617,168.3,209.617,167.678z"/>
		<path fill="#869ED6" d="M97.727,160.384h2.558c1.962,0,2.815-0.832,2.815-2.794c0-1.407-1.11-2.605-2.855-2.605h-2.517V160.384z
			 M96.854,153.367h3.478c2.389,0,4.648,1.617,4.648,4.094c0,3.072-1.881,4.229-4.141,4.31l-0.812,0.02l4.844,5.312
			c0.257,0.277,0.365,0.514,0.365,0.853c0,0.406-0.386,0.73-0.853,0.73c-0.385,0-0.643-0.196-0.859-0.426l-5.799-6.36v5.778
			c0,0.622-0.365,1.008-0.94,1.008s-0.94-0.386-0.94-1.008v-13.289C95.846,153.814,96.15,153.367,96.854,153.367z"/>
		<path fill="#869ED6" d="M109.838,153.367h7.551c0.528,0,0.914,0.277,0.914,0.873c0,0.595-0.386,0.873-0.914,0.873h-2.842v12.565
			c0,0.622-0.358,1.008-0.934,1.008s-0.94-0.386-0.94-1.008v-12.565h-2.835c-0.535,0-0.92-0.277-0.92-0.873
			C108.917,153.645,109.303,153.367,109.838,153.367z"/>
		<path fill="#869ED6" d="M84.106,167.062c3.41,0,4.648-3.201,4.648-6.103c0-2.896-1.238-6.096-4.648-6.096
			c-3.417,0-4.655,3.2-4.655,6.096C79.452,163.861,80.69,167.062,84.106,167.062z M84.106,168.686c-4.33,0-6.658-3.775-6.658-7.727
			c0-3.945,2.328-7.72,6.658-7.72c4.331,0,6.651,3.775,6.651,7.72C90.758,164.91,88.437,168.686,84.106,168.686z"/>
		<path fill="#869ED6" d="M60.588,167.678v-13.329c0-0.745,0.25-1.11,0.853-1.11c0.555,0,0.805,0.237,1.319,0.981l7.679,11.029
			h0.041V154.24c0-0.616,0.365-1.001,0.94-1.001c0.575,0,0.94,0.386,0.94,1.001v13.336c0,0.744-0.257,1.109-0.853,1.109
			c-0.555,0-0.812-0.237-1.326-0.981l-7.68-11.036h-0.041v11.009c0,0.622-0.365,1.008-0.94,1.008S60.588,168.3,60.588,167.678z"/>
		<path fill="#869ED6" d="M30.29,166.933c1.813,0,2.902-1.516,2.902-3.288c0-1.786-0.792-3.221-2.625-3.221
			c-1.387,0-2.05,0.582-2.578,0.582c-0.453,0-0.643-0.277-0.643-0.582c0-0.23,0.088-0.785,0.149-1.258l0.792-5.312
			c0.061-0.379,0.25-0.487,0.704-0.487h5.264c0.453,0,0.812,0.366,0.812,0.812c0,0.447-0.359,0.805-0.812,0.805h-4.331l-0.616,4.121
			c0.616-0.318,1.299-0.426,2.003-0.426c2.368,0,3.884,2.24,3.884,4.608c0,3.261-1.854,5.399-4.926,5.399
			c-2.517,0-4.27-1.604-4.27-2.523c0-0.379,0.217-0.812,0.684-0.812C27.455,165.35,28.138,166.933,30.29,166.933z"/>
	</g>
	<g>
	</g>
</g>
</svg>
