<?xml version="1.0" encoding="utf-8"?>
<!-- Generator: Adobe Illustrator 16.0.0, SVG Export Plug-In . SVG Version: 6.00 Build 0)  -->
<!DOCTYPE svg PUBLIC "-//W3C//DTD SVG 1.1//EN" "http://www.w3.org/Graphics/SVG/1.1/DTD/svg11.dtd">
<svg version="1.1" xmlns="http://www.w3.org/2000/svg" xmlns:xlink="http://www.w3.org/1999/xlink" x="0px" y="0px" width="160px"
	 height="40px" viewBox="0 0 160 40" enable-background="new 0 0 160 40" xml:space="preserve">
<g id="Capa_1">
	<g>
		<path fill="#D2D2D2" d="M17.312,9.824c0.272-0.299,0.246-0.758-0.059-1.024L10.55,2.936c-0.304-0.266-0.792-0.261-1.09,0.012
			L2.733,9.114c-0.298,0.272-0.313,0.731-0.032,1.022l0.168,0.175c0.28,0.291,0.732,0.326,1.009,0.077l0.503-0.45v6.591
			c0,0.404,0.328,0.731,0.732,0.731h2.622c0.404,0,0.731-0.327,0.731-0.731v-3.557h3.344v3.557
			c-0.006,0.403,0.284,0.731,0.688,0.731h2.779c0.404,0,0.732-0.328,0.732-0.731v-6.499c0,0,0.139,0.122,0.31,0.273
			c0.171,0.149,0.53,0.029,0.802-0.271L17.312,9.824z"/>
	</g>
	<g>
		<path fill="#FFFFFF" d="M17.312,29.824c0.272-0.299,0.246-0.758-0.059-1.024l-6.704-5.865c-0.304-0.266-0.792-0.261-1.09,0.012
			l-6.727,6.166c-0.298,0.272-0.313,0.731-0.032,1.022l0.168,0.175c0.28,0.291,0.732,0.326,1.009,0.077l0.503-0.45v6.591
			c0,0.404,0.328,0.731,0.732,0.731h2.622c0.404,0,0.731-0.327,0.731-0.731v-3.557h3.344v3.557
			c-0.006,0.403,0.284,0.731,0.688,0.731h2.779c0.404,0,0.732-0.328,0.732-0.731v-6.499c0,0,0.139,0.122,0.31,0.273
			c0.171,0.149,0.53,0.029,0.802-0.271L17.312,29.824z"/>
	</g>
	<g>
		<g>
			<path fill="#D2D2D2" d="M26.267,5.296c-3.049,1.77-2.875,4.651-2.77,5.718c3.939-4.666,9.83-4.439,9.83-4.439
				s-8.351,2.865-10.804,8.609c-0.194,0.453,0.909,1.043,1.16,0.507c0.751-1.598,1.798-2.795,1.798-2.795
				c1.544,0.574,4.215,1.248,6.108-0.084c2.515-1.77,2.257-5.693,5.847-7.603C38.276,4.762,30.401,2.897,26.267,5.296z"/>
		</g>
	</g>
	<g>
		<g>
			<path fill="#FFFFFF" d="M26.267,25.296c-3.049,1.77-2.875,4.651-2.77,5.718c3.939-4.666,9.83-4.439,9.83-4.439
				s-8.351,2.865-10.804,8.609c-0.194,0.453,0.909,1.043,1.16,0.507c0.751-1.598,1.798-2.795,1.798-2.795
				c1.544,0.574,4.215,1.248,6.108-0.084c2.515-1.77,2.257-5.693,5.847-7.603C38.276,24.762,30.401,22.897,26.267,25.296z"/>
		</g>
	</g>
	<g>
		<path fill="#D2D2D2" d="M42.5,17.5H50v-15h-7.5V17.5z M47.188,4.375h1.875V6.25h-1.875V4.375z M47.188,8.125h1.875V10h-1.875
			V8.125z M47.188,11.875h1.875v1.875h-1.875V11.875z M43.438,4.375h1.875V6.25h-1.875V4.375z M43.438,8.125h1.875V10h-1.875V8.125z
			 M43.438,11.875h1.875v1.875h-1.875V11.875z M50.938,7.188H57.5v0.938h-6.563V7.188z M50.938,17.5h1.875v-3.75h2.813v3.75H57.5
			V9.063h-6.563V17.5z"/>
	</g>
	<g>
		<path fill="#FFFFFF" d="M42.5,37.5H50v-15h-7.5V37.5z M47.188,24.375h1.875v1.875h-1.875V24.375z M47.188,28.125h1.875V30h-1.875
			V28.125z M47.188,31.875h1.875v1.875h-1.875V31.875z M43.438,24.375h1.875v1.875h-1.875V24.375z M43.438,28.125h1.875V30h-1.875
			V28.125z M43.438,31.875h1.875v1.875h-1.875V31.875z M50.938,27.188H57.5v0.938h-6.563V27.188z M50.938,37.5h1.875v-3.75h2.813
			v3.75H57.5v-8.438h-6.563V37.5z"/>
	</g>
	<g>
		<path fill="#D2D2D2" d="M68.074,9.634l-1.363,0.413c0.134,1.729,1.583,3.095,3.345,3.095c1.752,0,3.193-1.349,3.343-3.062
			l-1.473-0.446c-0.042-0.126-0.135-0.236-0.265-0.329c0.144-0.159,0.264-0.319,0.355-0.453c0.218-0.315,0.399-0.655,0.524-0.983
			c0.062-0.139,0.114-0.277,0.156-0.413c0.17-0.142,0.27-0.353,0.27-0.575V6.337c0-0.156-0.05-0.308-0.14-0.435V5.138
			c0-1.342-1.092-2.433-2.433-2.433h-0.789c-1.341,0-2.433,1.091-2.433,2.433v0.765c-0.09,0.127-0.14,0.279-0.14,0.435V6.88
			c0,0.223,0.1,0.434,0.27,0.575c0.042,0.136,0.095,0.274,0.156,0.414c0.125,0.327,0.307,0.667,0.524,0.982
			c0.092,0.134,0.212,0.294,0.355,0.453C68.209,9.397,68.116,9.508,68.074,9.634z M69.533,11.525
			c-0.006,0.063-0.052,0.117-0.113,0.134c-0.014,0.004-0.028,0.006-0.041,0.006c-0.049,0-0.095-0.021-0.126-0.062l-0.438-0.581
			c-0.021-0.027-0.031-0.061-0.031-0.095l0.001-0.932c0-0.055,0.028-0.104,0.075-0.134c0.047-0.027,0.105-0.029,0.153-0.004
			c0.127,0.067,0.255,0.113,0.378,0.135c0.075,0.013,0.129,0.078,0.129,0.154v0.389c0.022,0.008,0.043,0.022,0.059,0.039
			c0.029,0.034,0.044,0.077,0.04,0.121L69.533,11.525z M71.215,10.928c0,0.034-0.011,0.067-0.031,0.095l-0.437,0.58
			c-0.031,0.04-0.077,0.063-0.125,0.063c-0.014,0-0.028-0.002-0.042-0.006c-0.062-0.018-0.106-0.07-0.113-0.134l-0.086-0.829
			c-0.004-0.043,0.011-0.087,0.04-0.12c0.016-0.018,0.036-0.032,0.059-0.04v-0.389c0-0.076,0.054-0.142,0.129-0.154
			c0.123-0.021,0.251-0.067,0.378-0.135c0.049-0.025,0.106-0.023,0.153,0.005s0.076,0.078,0.076,0.133L71.215,10.928L71.215,10.928z
			 M68.099,7.076L68.09,7.012l-0.151-0.099c-0.044-0.029-0.071-0.077-0.071-0.131V6.525c0-0.086,0.069-0.156,0.156-0.156h0.063
			V6.092c0-0.06,0.033-0.113,0.086-0.14c0.215-0.107,0.642-0.286,1.082-0.286c0.352,0,0.644,0.116,0.868,0.348
			c0.277,0.287,0.599,0.434,0.953,0.434c0.201,0,0.409-0.048,0.617-0.142c0.049-0.021,0.104-0.017,0.148,0.012
			c0.021,0.014,0.038,0.031,0.05,0.052h0.085c0.087,0,0.156,0.07,0.156,0.156v0.257c0,0.054-0.026,0.102-0.071,0.131L71.91,7.011
			l-0.008,0.065c-0.05,0.372-0.259,0.855-0.56,1.292c-0.382,0.553-0.739,0.8-0.924,0.8h-0.838c-0.185,0-0.542-0.247-0.924-0.8
			C68.356,7.932,68.147,7.448,68.099,7.076z"/>
		<path fill="#D2D2D2" d="M76.278,9.225h-1.428c-0.408,0-0.737,0.33-0.737,0.737c0,2.237-1.82,4.057-4.058,4.057
			c-2.236,0-4.057-1.819-4.057-4.057c0-0.407-0.33-0.737-0.737-0.737h-1.54c-0.407,0-0.738,0.33-0.738,0.737
			s0.331,0.737,0.738,0.737h0.852c0.123,0.924,0.476,1.774,0.996,2.496l-0.701,0.702c-0.288,0.287-0.288,0.755,0,1.043
			c0.144,0.144,0.332,0.216,0.521,0.216c0.188,0,0.377-0.072,0.521-0.216l0.673-0.674c0.756,0.61,1.674,1.025,2.679,1.171v1.12
			c0,0.407,0.33,0.737,0.737,0.737s0.737-0.33,0.737-0.737v-1.105c1.021-0.126,1.956-0.531,2.728-1.136l0.624,0.624
			c0.145,0.144,0.333,0.216,0.521,0.216c0.189,0,0.378-0.072,0.521-0.216c0.288-0.288,0.288-0.756,0-1.043l-0.638-0.638
			c0.548-0.735,0.918-1.609,1.045-2.561h0.739c0.407,0,0.738-0.33,0.738-0.737S76.686,9.225,76.278,9.225z"/>
	</g>
	<g>
		<path fill="#FFFFFF" d="M68.074,29.634l-1.363,0.413c0.134,1.729,1.583,3.095,3.345,3.095c1.752,0,3.193-1.349,3.343-3.062
			l-1.473-0.446c-0.042-0.126-0.135-0.236-0.265-0.329c0.144-0.159,0.264-0.319,0.355-0.453c0.218-0.315,0.399-0.655,0.524-0.983
			c0.062-0.139,0.114-0.277,0.156-0.413c0.17-0.142,0.27-0.353,0.27-0.575v-0.543c0-0.156-0.05-0.308-0.14-0.435v-0.765
			c0-1.342-1.092-2.433-2.433-2.433h-0.789c-1.341,0-2.433,1.091-2.433,2.433v0.765c-0.09,0.127-0.14,0.279-0.14,0.435v0.543
			c0,0.223,0.1,0.434,0.27,0.575c0.042,0.136,0.095,0.274,0.156,0.414c0.125,0.327,0.307,0.667,0.524,0.982
			c0.092,0.134,0.212,0.294,0.355,0.453C68.209,29.397,68.116,29.508,68.074,29.634z M69.533,31.525
			c-0.006,0.063-0.052,0.117-0.113,0.134c-0.014,0.004-0.028,0.006-0.041,0.006c-0.049,0-0.095-0.021-0.126-0.062l-0.438-0.581
			c-0.021-0.027-0.031-0.061-0.031-0.095l0.001-0.932c0-0.055,0.028-0.104,0.075-0.134c0.047-0.027,0.105-0.029,0.153-0.004
			c0.127,0.067,0.255,0.113,0.378,0.135c0.075,0.013,0.129,0.078,0.129,0.154v0.389c0.022,0.008,0.043,0.022,0.059,0.039
			c0.029,0.034,0.044,0.077,0.04,0.121L69.533,31.525z M71.215,30.928c0,0.034-0.011,0.067-0.031,0.095l-0.437,0.58
			c-0.031,0.04-0.077,0.063-0.125,0.063c-0.014,0-0.028-0.002-0.042-0.006c-0.062-0.018-0.106-0.07-0.113-0.134l-0.086-0.829
			c-0.004-0.043,0.011-0.087,0.04-0.12c0.016-0.018,0.036-0.032,0.059-0.04v-0.389c0-0.076,0.054-0.142,0.129-0.154
			c0.123-0.021,0.251-0.067,0.378-0.135c0.049-0.025,0.106-0.023,0.153,0.005s0.076,0.078,0.076,0.133L71.215,30.928L71.215,30.928z
			 M68.099,27.076l-0.009-0.064l-0.151-0.099c-0.044-0.029-0.071-0.077-0.071-0.131v-0.257c0-0.086,0.069-0.156,0.156-0.156h0.063
			v-0.277c0-0.06,0.033-0.113,0.086-0.14c0.215-0.107,0.642-0.286,1.082-0.286c0.352,0,0.644,0.116,0.868,0.348
			c0.277,0.287,0.599,0.434,0.953,0.434c0.201,0,0.409-0.048,0.617-0.142c0.049-0.021,0.104-0.017,0.148,0.012
			c0.021,0.014,0.038,0.031,0.05,0.052h0.085c0.087,0,0.156,0.07,0.156,0.156v0.257c0,0.054-0.026,0.102-0.071,0.131l-0.151,0.098
			l-0.008,0.065c-0.05,0.372-0.259,0.855-0.56,1.292c-0.382,0.553-0.739,0.8-0.924,0.8h-0.838c-0.185,0-0.542-0.247-0.924-0.8
			C68.356,27.932,68.147,27.448,68.099,27.076z"/>
		<path fill="#FFFFFF" d="M76.278,29.225h-1.428c-0.408,0-0.737,0.33-0.737,0.737c0,2.237-1.82,4.057-4.058,4.057
			c-2.236,0-4.057-1.819-4.057-4.057c0-0.407-0.33-0.737-0.737-0.737h-1.54c-0.407,0-0.738,0.33-0.738,0.737
			s0.331,0.737,0.738,0.737h0.852c0.123,0.924,0.476,1.774,0.996,2.496l-0.701,0.702c-0.288,0.287-0.288,0.755,0,1.043
			c0.144,0.144,0.332,0.216,0.521,0.216c0.188,0,0.377-0.072,0.521-0.216l0.673-0.674c0.756,0.61,1.674,1.025,2.679,1.171v1.12
			c0,0.407,0.33,0.737,0.737,0.737s0.737-0.33,0.737-0.737v-1.105c1.021-0.126,1.956-0.531,2.728-1.136l0.624,0.624
			c0.145,0.144,0.333,0.216,0.521,0.216c0.189,0,0.378-0.072,0.521-0.216c0.288-0.288,0.288-0.756,0-1.043l-0.638-0.638
			c0.548-0.735,0.918-1.609,1.045-2.561h0.739c0.407,0,0.738-0.33,0.738-0.737S76.686,29.225,76.278,29.225z"/>
	</g>
	<g>
		<g id="Layer_1_155_">
			<g>
				<path fill="#D2D2D2" d="M110.833,5.33h-4.944c-0.364,0-0.66,0.295-0.66,0.659c0,0.364,0.295,0.659,0.66,0.659h4.944
					c0.365,0,0.66-0.295,0.66-0.659C111.492,5.625,111.197,5.33,110.833,5.33z"/>
				<path fill="#D2D2D2" d="M111.492,8.461c0-0.364-0.295-0.66-0.659-0.66h-4.944c-0.364,0-0.66,0.295-0.66,0.66
					s0.295,0.659,0.66,0.659h4.944C111.197,9.121,111.492,8.826,111.492,8.461z"/>
				<path fill="#D2D2D2" d="M108.36,11.593c0.364,0,0.66-0.296,0.66-0.66s-0.295-0.659-0.66-0.659h-2.472
					c-0.364,0-0.66,0.295-0.66,0.659s0.295,0.66,0.66,0.66H108.36z"/>
				<path fill="#D2D2D2" d="M113.337,13.835l-0.691,0.457v1.641h-8.571V4.066h8.571v2.605l1.318-2.284v-0.98
					c0-0.364-0.295-0.659-0.66-0.659h-9.889c-0.365,0-0.66,0.295-0.66,0.659v13.186c0,0.364,0.294,0.66,0.66,0.66h9.889
					c0.364,0,0.66-0.295,0.66-0.66v-3.634l-0.315,0.545C113.572,13.637,113.464,13.751,113.337,13.835z"/>
				<path fill="#D2D2D2" d="M117.236,5.801c-0.015-0.06-0.154-0.592-0.992-1.077c-0.839-0.484-1.369-0.338-1.428-0.32
					c-0.079,0.025-0.145,0.078-0.187,0.149l-4.12,7.137c-0.026,0.045-0.041,0.095-0.044,0.146l-0.154,2.575
					c-0.008,0.125,0.056,0.242,0.163,0.305c0.109,0.063,0.243,0.058,0.347-0.01l2.153-1.421c0.042-0.027,0.078-0.065,0.104-0.109
					l4.12-7.138C117.241,5.965,117.253,5.882,117.236,5.801z M111.652,13.565c-0.109-0.088-0.233-0.172-0.367-0.249
					s-0.269-0.143-0.4-0.193l0.046-0.772c0.172,0.022,0.426,0.092,0.75,0.278c0.323,0.187,0.51,0.373,0.617,0.511L111.652,13.565z"
					/>
				<path fill="#D2D2D2" d="M107.353,14.639c0.022,0.132,0.174,0.174,0.276,0.216c0.099,0.042,0.217-0.037,0.299-0.077
					c0.502-0.245,1.184,0.043,1.723,0.043c0.319,0,0.319-0.494,0-0.494c-0.628,0-1.151-0.159-1.773-0.057
					c0-0.036-0.014-0.084-0.052-0.151c-0.117-0.198-0.265-0.255-0.414-0.231c-0.01-0.023-0.02-0.047-0.033-0.071
					c-0.039-0.063-0.093-0.095-0.154-0.109c0.174-0.303,0.286-0.625,0.172-0.885c-0.035-0.079-0.134-0.12-0.213-0.123
					c-0.33-0.012-0.613,0.335-0.826,0.542c-0.531,0.521-0.999,1.111-1.452,1.7c-0.195,0.252,0.235,0.498,0.426,0.25
					c0.401-0.521,0.827-1.026,1.284-1.5c-0.11,0.181-0.228,0.359-0.351,0.529c-0.175,0.272,0.244,0.503,0.427,0.25
					c0.044-0.066,0.099-0.114,0.16-0.155c-0.012,0.03-0.024,0.061-0.037,0.091c0.001,0,0.001,0,0.002,0.001
					c-0.01,0.019-0.019,0.039-0.027,0.058c-0.11,0.276,0.302,0.403,0.453,0.189c0.038-0.054,0.073-0.111,0.104-0.171
					C107.345,14.527,107.343,14.583,107.353,14.639z"/>
			</g>
		</g>
	</g>
	<g>
		<g id="Layer_1_1_">
			<g>
				<path fill="#FFFFFF" d="M110.833,25.33h-4.944c-0.364,0-0.66,0.295-0.66,0.659c0,0.364,0.295,0.659,0.66,0.659h4.944
					c0.365,0,0.66-0.295,0.66-0.659C111.492,25.625,111.197,25.33,110.833,25.33z"/>
				<path fill="#FFFFFF" d="M111.492,28.461c0-0.364-0.295-0.66-0.659-0.66h-4.944c-0.364,0-0.66,0.295-0.66,0.66
					s0.295,0.659,0.66,0.659h4.944C111.197,29.121,111.492,28.826,111.492,28.461z"/>
				<path fill="#FFFFFF" d="M108.36,31.593c0.364,0,0.66-0.296,0.66-0.66s-0.295-0.659-0.66-0.659h-2.472
					c-0.364,0-0.66,0.295-0.66,0.659s0.295,0.66,0.66,0.66H108.36z"/>
				<path fill="#FFFFFF" d="M113.337,33.835l-0.691,0.457v1.641h-8.571V24.066h8.571v2.605l1.318-2.284v-0.98
					c0-0.364-0.295-0.659-0.66-0.659h-9.889c-0.365,0-0.66,0.295-0.66,0.659v13.186c0,0.364,0.294,0.66,0.66,0.66h9.889
					c0.364,0,0.66-0.295,0.66-0.66v-3.634l-0.315,0.545C113.572,33.637,113.464,33.751,113.337,33.835z"/>
				<path fill="#FFFFFF" d="M117.236,25.801c-0.015-0.06-0.154-0.592-0.992-1.077c-0.839-0.484-1.369-0.338-1.428-0.32
					c-0.079,0.025-0.145,0.078-0.187,0.149l-4.12,7.137c-0.026,0.045-0.041,0.095-0.044,0.146l-0.154,2.575
					c-0.008,0.125,0.056,0.242,0.163,0.305c0.109,0.063,0.243,0.058,0.347-0.01l2.153-1.421c0.042-0.027,0.078-0.065,0.104-0.109
					l4.12-7.138C117.241,25.965,117.253,25.882,117.236,25.801z M111.652,33.565c-0.109-0.088-0.233-0.172-0.367-0.249
					s-0.269-0.143-0.4-0.193l0.046-0.772c0.172,0.022,0.426,0.092,0.75,0.278c0.323,0.187,0.51,0.373,0.617,0.511L111.652,33.565z"
					/>
				<path fill="#FFFFFF" d="M107.353,34.639c0.022,0.132,0.174,0.174,0.276,0.216c0.099,0.042,0.217-0.037,0.299-0.077
					c0.502-0.245,1.184,0.043,1.723,0.043c0.319,0,0.319-0.494,0-0.494c-0.628,0-1.151-0.159-1.773-0.057
					c0-0.036-0.014-0.084-0.052-0.151c-0.117-0.198-0.265-0.255-0.414-0.231c-0.01-0.023-0.02-0.047-0.033-0.071
					c-0.039-0.063-0.093-0.095-0.154-0.109c0.174-0.303,0.286-0.625,0.172-0.885c-0.035-0.079-0.134-0.12-0.213-0.123
					c-0.33-0.012-0.613,0.335-0.826,0.542c-0.531,0.521-0.999,1.111-1.452,1.7c-0.195,0.252,0.235,0.498,0.426,0.25
					c0.401-0.521,0.827-1.026,1.284-1.5c-0.11,0.181-0.228,0.359-0.351,0.529c-0.175,0.272,0.244,0.503,0.427,0.25
					c0.044-0.066,0.099-0.114,0.16-0.155c-0.012,0.03-0.024,0.061-0.037,0.091c0.001,0,0.001,0,0.002,0.001
					c-0.01,0.019-0.019,0.039-0.027,0.058c-0.11,0.276,0.302,0.403,0.453,0.189c0.038-0.054,0.073-0.111,0.104-0.171
					C107.345,34.527,107.343,34.583,107.353,34.639z"/>
			</g>
		</g>
	</g>
	<g>
		<g>
			<path fill="#D2D2D2" d="M130,10.422c1.77,0,3.203-1.679,3.203-3.749c0-2.871-1.434-3.749-3.203-3.749
				c-1.769,0-3.203,0.878-3.203,3.749C126.796,8.743,128.23,10.422,130,10.422z"/>
			<path fill="#D2D2D2" d="M137.073,15.94l-1.616-3.641c-0.074-0.167-0.204-0.305-0.366-0.39l-2.507-1.305
				c-0.055-0.028-0.122-0.023-0.172,0.015c-0.709,0.536-1.543,0.819-2.412,0.819c-0.869,0-1.702-0.283-2.412-0.819
				c-0.049-0.038-0.116-0.043-0.171-0.015l-2.508,1.305c-0.161,0.085-0.292,0.223-0.365,0.39l-1.616,3.641
				c-0.111,0.25-0.088,0.538,0.061,0.768c0.149,0.23,0.403,0.368,0.678,0.368h12.668c0.274,0,0.527-0.138,0.677-0.368
				C137.161,16.479,137.184,16.19,137.073,15.94z"/>
		</g>
	</g>
	<g>
		<g>
			<path fill="#FFFFFF" d="M130,30.422c1.77,0,3.203-1.679,3.203-3.749c0-2.871-1.434-3.749-3.203-3.749
				c-1.769,0-3.203,0.878-3.203,3.749C126.796,28.743,128.23,30.422,130,30.422z"/>
			<path fill="#FFFFFF" d="M137.073,35.94l-1.616-3.641c-0.074-0.167-0.204-0.305-0.366-0.39l-2.507-1.305
				c-0.055-0.028-0.122-0.023-0.172,0.015c-0.709,0.536-1.543,0.819-2.412,0.819c-0.869,0-1.702-0.283-2.412-0.819
				c-0.049-0.038-0.116-0.043-0.171-0.015l-2.508,1.305c-0.161,0.085-0.292,0.223-0.365,0.39l-1.616,3.641
				c-0.111,0.25-0.088,0.538,0.061,0.768c0.149,0.23,0.403,0.368,0.678,0.368h12.668c0.274,0,0.527-0.138,0.677-0.368
				C137.161,36.479,137.184,36.19,137.073,35.94z"/>
		</g>
	</g>
	<g>
		<g>
			<path fill="#D2D2D2" d="M143.704,11.306c-0.207-2.222,0.743-4.235,2.318-5.514c0.613-0.499,1.531-0.071,1.531,0.717l0,0
				c0,0.29-0.137,0.557-0.361,0.737c-1.116,0.909-1.786,2.343-1.623,3.926c0.212,2.062,1.864,3.73,3.922,3.96
				c2.688,0.301,4.97-1.804,4.97-4.431c0-1.394-0.645-2.641-1.651-3.458c-0.225-0.181-0.359-0.447-0.359-0.734l0,0
				c0-0.78,0.904-1.222,1.511-0.734c1.439,1.162,2.363,2.937,2.363,4.927c0,3.64-3.091,6.573-6.788,6.307
				C146.48,16.792,143.988,14.357,143.704,11.306z M149.999,2.976c-0.516,0-0.932,0.419-0.932,0.932v4.293
				c0,0.516,0.419,0.932,0.932,0.932s0.932-0.419,0.932-0.932V3.908C150.93,3.395,150.515,2.976,149.999,2.976z"/>
		</g>
	</g>
	<g>
		<g>
			<path fill="#FFFFFF" d="M143.704,31.306c-0.207-2.222,0.743-4.235,2.318-5.514c0.613-0.499,1.531-0.071,1.531,0.717l0,0
				c0,0.29-0.137,0.557-0.361,0.737c-1.116,0.909-1.786,2.343-1.623,3.926c0.212,2.062,1.864,3.73,3.922,3.96
				c2.688,0.301,4.97-1.804,4.97-4.431c0-1.394-0.645-2.641-1.651-3.458c-0.225-0.181-0.359-0.447-0.359-0.734l0,0
				c0-0.78,0.904-1.222,1.511-0.734c1.439,1.162,2.363,2.937,2.363,4.927c0,3.64-3.091,6.573-6.788,6.307
				C146.48,36.792,143.988,34.357,143.704,31.306z M149.999,22.976c-0.516,0-0.932,0.419-0.932,0.932v4.293
				c0,0.516,0.419,0.932,0.932,0.932s0.932-0.419,0.932-0.932v-4.293C150.93,23.395,150.515,22.976,149.999,22.976z"/>
		</g>
	</g>
</g>
<g id="Layer_1">
	<g>
		<path fill-rule="evenodd" clip-rule="evenodd" fill="#D2D2D2" d="M96.763,14.202c-0.054,0.002-0.101,0.008-0.148,0.008
			c-2.468,0-4.936-0.001-7.403,0.003c-0.087,0-0.19,0.038-0.259,0.093c-1.109,0.88-2.214,1.766-3.32,2.65
			c-0.037,0.03-0.076,0.06-0.138,0.107c0-0.959,0-1.897,0-2.851c-0.763,0-1.504,0-2.257,0c0-3.765,0-7.514,0-11.275
			c4.508,0,9.013,0,13.525,0C96.763,6.693,96.763,10.442,96.763,14.202z M86.61,14.72c0.062-0.045,0.093-0.067,0.123-0.091
			c0.596-0.477,1.194-0.952,1.788-1.433c0.107-0.087,0.215-0.124,0.354-0.124c2.195,0.004,4.391,0.003,6.585,0.003
			c0.056,0,0.112,0,0.17,0c0-3.017,0-6.013,0-9.015c-3.758,0-7.507,0-11.26,0c0,3.008,0,6.008,0,9.019c0.749,0,1.487,0,2.239,0
			C86.61,13.623,86.61,14.155,86.61,14.72z"/>
		<path fill-rule="evenodd" clip-rule="evenodd" fill="#D2D2D2" d="M93.2,6.136c0.516,1.037-0.176,2.302-1.278,2.408
			c-0.194,0.019-0.396-0.002-0.591-0.032c-0.098-0.014-0.143,0.025-0.197,0.081c-1.016,1.027-2.032,2.055-3.049,3.082
			c-0.238,0.242-0.522,0.333-0.852,0.241c-0.634-0.179-0.831-0.95-0.358-1.42c0.751-0.749,1.509-1.491,2.264-2.236
			c0.281-0.276,0.561-0.555,0.845-0.827c0.068-0.066,0.079-0.125,0.061-0.218c-0.138-0.685,0.08-1.248,0.618-1.681
			c0.492-0.396,1.196-0.463,1.732-0.185c-0.396,0.387-0.79,0.773-1.182,1.156c0.29,0.288,0.551,0.547,0.824,0.817
			C92.413,6.938,92.799,6.545,93.2,6.136z"/>
		<path fill-rule="evenodd" clip-rule="evenodd" fill="#D2D2D2" d="M90.375,10.114c0.336-0.323,0.665-0.64,0.995-0.955
			c0.067-0.063,0.345-0.047,0.418,0.024c0.455,0.445,0.914,0.887,1.361,1.339c0.323,0.327,0.313,0.842-0.005,1.171
			c-0.307,0.316-0.831,0.359-1.146,0.055C91.456,11.226,90.936,10.681,90.375,10.114z"/>
		<path fill-rule="evenodd" clip-rule="evenodd" fill="#D2D2D2" d="M89.288,7.271c-0.196,0.205-0.373,0.39-0.563,0.587
			c-0.191-0.192-0.377-0.39-0.575-0.574c-0.082-0.076-0.191-0.124-0.288-0.183c-0.013-0.007-0.027-0.011-0.041-0.015
			c-0.215-0.075-0.472-0.101-0.632-0.239c-0.157-0.134-0.215-0.383-0.315-0.582c-0.085-0.169-0.168-0.338-0.248-0.5
			C86.815,5.577,87,5.393,87.201,5.193c0.342,0.17,0.706,0.351,1.068,0.534c0.022,0.012,0.039,0.041,0.054,0.065
			c0.01,0.016,0.013,0.037,0.017,0.056c0.11,0.55,0.403,0.986,0.839,1.333C89.221,7.214,89.261,7.249,89.288,7.271z"/>
	</g>
	<g>
		<path fill-rule="evenodd" clip-rule="evenodd" fill="#FFFFFF" d="M96.763,34.202c-0.054,0.002-0.101,0.008-0.148,0.008
			c-2.468,0-4.936-0.001-7.403,0.003c-0.087,0-0.19,0.038-0.259,0.093c-1.109,0.88-2.214,1.766-3.32,2.65
			c-0.037,0.03-0.076,0.06-0.138,0.107c0-0.959,0-1.897,0-2.851c-0.763,0-1.504,0-2.257,0c0-3.765,0-7.514,0-11.275
			c4.508,0,9.013,0,13.525,0C96.763,26.693,96.763,30.442,96.763,34.202z M86.61,34.72c0.062-0.045,0.093-0.067,0.123-0.091
			c0.596-0.477,1.194-0.952,1.788-1.433c0.107-0.087,0.215-0.124,0.354-0.124c2.195,0.004,4.391,0.003,6.585,0.003
			c0.056,0,0.112,0,0.17,0c0-3.017,0-6.013,0-9.015c-3.758,0-7.507,0-11.26,0c0,3.008,0,6.008,0,9.019c0.749,0,1.487,0,2.239,0
			C86.61,33.623,86.61,34.155,86.61,34.72z"/>
		<path fill-rule="evenodd" clip-rule="evenodd" fill="#FFFFFF" d="M93.2,26.136c0.516,1.037-0.176,2.302-1.278,2.408
			c-0.194,0.019-0.396-0.002-0.591-0.032c-0.098-0.014-0.143,0.025-0.197,0.081c-1.016,1.027-2.032,2.055-3.049,3.082
			c-0.238,0.242-0.522,0.333-0.852,0.241c-0.634-0.179-0.831-0.95-0.358-1.42c0.751-0.749,1.509-1.491,2.264-2.236
			c0.281-0.276,0.561-0.555,0.845-0.827c0.068-0.066,0.079-0.125,0.061-0.218c-0.138-0.685,0.08-1.248,0.618-1.681
			c0.492-0.396,1.196-0.463,1.732-0.185c-0.396,0.387-0.79,0.773-1.182,1.156c0.29,0.288,0.551,0.547,0.824,0.817
			C92.413,26.938,92.799,26.545,93.2,26.136z"/>
		<path fill-rule="evenodd" clip-rule="evenodd" fill="#FFFFFF" d="M90.375,30.114c0.336-0.323,0.665-0.64,0.995-0.955
			c0.067-0.063,0.345-0.047,0.418,0.024c0.455,0.445,0.914,0.887,1.361,1.339c0.323,0.327,0.313,0.842-0.005,1.171
			c-0.307,0.316-0.831,0.359-1.146,0.055C91.456,31.226,90.936,30.681,90.375,30.114z"/>
		<path fill-rule="evenodd" clip-rule="evenodd" fill="#FFFFFF" d="M89.288,27.271c-0.196,0.205-0.373,0.39-0.563,0.587
			c-0.191-0.192-0.377-0.39-0.575-0.574c-0.082-0.076-0.191-0.124-0.288-0.183c-0.013-0.007-0.027-0.011-0.041-0.015
			c-0.215-0.075-0.472-0.101-0.632-0.239c-0.157-0.134-0.215-0.383-0.315-0.582c-0.085-0.169-0.168-0.338-0.248-0.5
			c0.189-0.188,0.374-0.373,0.575-0.572c0.342,0.17,0.706,0.351,1.068,0.534c0.022,0.012,0.039,0.041,0.054,0.065
			c0.01,0.016,0.013,0.037,0.017,0.056c0.11,0.55,0.403,0.986,0.839,1.333C89.221,27.214,89.261,27.249,89.288,27.271z"/>
	</g>
</g>
</svg>
