<?xml version="1.0" encoding="utf-8"?>
<!-- Generator: Adobe Illustrator 16.0.0, SVG Export Plug-In . SVG Version: 6.00 Build 0)  -->
<!DOCTYPE svg PUBLIC "-//W3C//DTD SVG 1.1//EN" "http://www.w3.org/Graphics/SVG/1.1/DTD/svg11.dtd">
<svg version="1.1" id="Layer_1" xmlns="http://www.w3.org/2000/svg" xmlns:xlink="http://www.w3.org/1999/xlink" x="0px" y="0px"
	 width="23px" height="23px" viewBox="0 0 23 23" enable-background="new 0 0 23 23" xml:space="preserve">
<circle fill="#71C386" cx="11.5" cy="11.5" r="11.5"/>
<g>
	<path fill="#FFFFFF" d="M12.5,17.009c0,0.553-0.448,1-1,1l0,0c-0.552,0-1-0.447-1-1V5.991c0-0.552,0.448-1,1-1l0,0
		c0.552,0,1,0.448,1,1V17.009z"/>
	<path fill="#FFFFFF" d="M5.991,12.5c-0.553,0-1-0.448-1-1l0,0c0-0.552,0.447-1,1-1h11.018c0.552,0,1,0.448,1,1l0,0
		c0,0.552-0.448,1-1,1H5.991z"/>
</g>
</svg>
